<?xml version="1.0" encoding="utf-8"?>
<!-- Generator: Adobe Illustrator 21.0.0, SVG Export Plug-In . SVG Version: 6.00 Build 0)  -->
<svg version="1.1" id="Layer_1" xmlns="http://www.w3.org/2000/svg" xmlns:xlink="http://www.w3.org/1999/xlink" x="0px" y="0px"
	 viewBox="0 0 792 612" style="enable-background:new 0 0 792 612;" xml:space="preserve">
<style type="text/css">
	.st0{fill:#FFFFFF;}
</style>
<g>
	<path class="st0" d="M732.1,331.8c-7.6,0-19.3,19.6-28.7,28.1c-12.9,11.1-25.5,15.8-33.4,15.8c-6.7,0-10-2.3-10-8.2
		c0-10,7-29.5,14.1-45.6c0.4-0.8,1-1.4,1.8-1.8c12-5.6,25.5-15.1,44.5-35.7c19.9-21.7,31.6-47.7,31.6-56.8
		c0-10.8-13.8-23.7-23.1-23.7c-15.9,0-40.7,28.4-62,62.2c-0.1,0.1-0.2,0.3-0.3,0.4c-11.7,14-22.2,21.3-32,21.3
		c-7.4,0-10.7-2.4-10.7-9.6c0-2.4,0.3-5.5,1.5-9.3c0.7-2.1,3.1-3.2,5.1-2.1c4.1,2.1,8.8,4,11.9,4c9.4,0,24.5-16.9,25.5-31.1
		c0-7.6-12.5-16.7-17.9-17.5c-1,0-1.8-0.2-2.8-0.2c-14.7,0-36.1,18.1-43.2,40.1c-0.3,0.3-0.5,0.5-0.8,0.9
		c-12.9,16.5-24.3,24.9-35,24.9c-7.4,0-10.7-2.4-10.7-9.6c0-2.4,0.3-5.5,1.5-9.3c0.7-2.1,3.1-3.2,5.1-2.1c4.1,2.1,8.8,4,11.9,4
		c9.4,0,24.5-16.9,25.5-31.1c0-7.6-12.5-16.7-17.9-17.5c-1,0-1.8-0.2-2.8-0.2c-14.7,0-36.1,18.1-43.2,40.1c-0.1,0.5-0.4,0.9-0.7,1.2
		c-9.7,10.7-24.1,27.6-33.1,27.6c-7.5,0-13.3-6-15.7-11.7c-0.9-2.1,0.4-4.5,2.6-5c28.9-6.6,37.2-15.3,37.2-26.9
		c0-10.4-5-23.1-10.4-23.9c-1.2-0.2-2.4-0.2-3.6-0.2c-3,0-5.8,0.6-8.7,1.6c-3.3,1.2-6.2-2.4-4.3-5.4c16-24.2,28-41,28-41.2
		c0-5.2-12.3-11.3-18.5-11.3c-0.6,0-1.4,0-1.8,0.2c-6.3,2.9-44.8,61-65.3,97c-0.1,0.2-0.2,0.3-0.3,0.5c-5.1,6.1-18.7,23-26.4,23
		c-1.4,0-2.8-0.4-2.8-2.2c0-6.2,11.5-25.5,19.5-36.8c1.6-2.4,7.2-10.2,7.2-12.3c0-5.8-10.8-9.6-15.9-9.6c-1.4,0-2.6,0.3-5.3,3.1
		c-1.6,1.6-4.3,1.3-5.6-0.6c-2.3-3.6-5.4-7.1-8.9-7.1c-16.5,0-40.7,24.9-46.9,44.7c-0.1,0.4-0.3,0.8-0.6,1.2
		c-7.3,8.7-19.8,22.2-25.4,22.2c-0.8,0-1.2-0.2-1.2-1.2c0-9.8,13.1-30.3,22.9-41.4c1-1.2,1.4-3.4,1.4-6.2c0-7.8-3.8-19.5-10.7-19.5
		c-4.8,0-17.3,11.1-29.5,22.2c-3.1,2.8-7.7-1-5.5-4.6c15.3-24.5,34.6-53,41.2-59.5c1-1,1.6-2.4,1.6-3.6c0-5.4-9-11.9-15.1-11.9
		c-1,0-1.8,0.2-2.6,0.6c-11.2,6.2-49.6,64.3-67.9,100.1c-1,2-3.7,2.6-5.5,1.1c-13.8-11.1-32.3-22.4-48.6-32.3
		c-33.3-20.3-50.8-31.5-52.7-45.3l-0.1-0.9c-0.2-1.1-0.4-2.4-0.4-3.9c0-18.6,13.5-39.7,41.4-64.7c17.3-15.6,37.2-26.6,48.3-26.6
		c10.8,0,13.7,7.8,13.7,12.5c0,6.9-5.3,17.1-25.8,49.3c-3.1,4.8-5.7,9-7.3,11.6c-0.7,1.1-0.7,1.9,0.1,3.2c1.3,1.3,1.8,1.9,4.3,3.9
		c4.6,3.7,17.1,13.6,25,16.7c1.3,0.5,2.8,0.2,3.8-0.8c12.6-12.2,41.7-61,41.7-77.4c0-16.8-38.9-40.9-60.2-40.9
		c-18.5,0-71.7,16.1-109.3,64c-13,16.6-19.9,33.5-19.9,48.7c0,19.8,10.5,35.3,19.3,44.8c6.3,6.7,20.3,17.2,35.1,28.2
		c33.8,25.2,56.3,42.9,60.5,57.8c1.2,4.3,1.2,7.9,1.2,10.8c0,26.4-27.9,42.8-72.8,42.8c-50.4,0-95.7-23.8-109.6-47.4
		c-1.5-2.6-5.3-2.2-6.4,0.5c-2.5,5.9-4.5,13.3-4.5,21.7c0,28.9,41.1,46.3,79.4,48.3c84.5,4.2,166-39.1,166-87.3
		c0-3.4-0.4-6.8-1.3-10.1c-0.3-1.2-0.1-2.4,0.7-3.3c3.8-4.4,7.7-8.5,11.5-11.9c3.9-3.5,6.8-6.2,9.2-8.3c2.9-2.6,7.3,0.6,5.7,4.2
		c-2.2,5-3.9,9.1-3.9,10.6c0,10.8,15.7,20.9,19.5,20.9c11.3,0.2,20.1-9.4,27.5-16.5c1.8-1.7,3.6-3.5,5.3-5.3
		c3.3,10.2,11.5,17.8,18.6,17.8c4.9,0,9-2.8,12.6-5.9c1.6-1.4,4-1.1,5.2,0.5c3.1,4.1,8.4,5.8,13.3,5.8c6.5,0,13.3-3,19.7-7.3
		c1.6-1.1,3.8-0.7,4.9,0.9c3.3,4.4,10.3,7.6,13.9,7.6c2.2,0,7.6-9.9,13-19c1.3-2.2,4.3-2.4,5.9-0.4c9.3,11.5,20.9,21.7,35.8,21.7
		c9.1,0,23.9-12.9,34.5-24.2c0.3,2,0.8,3.8,1.4,5.3c3.2,7,19.3,14.5,27.7,14.5c10.8,0,22.9-5.8,33-15.5c1.5-1.4,2.9-2.8,4.2-4.2
		c0.3,2,0.8,3.8,1.4,5.2c3.2,7,19.3,14.5,27.7,14.5c3.1,0,6.3-0.5,9.6-1.4c3.1-0.9,5.7,2.2,4.3,5c-12,24.3-20.2,47-20.2,60
		c0,7.9,12.6,29.9,22.8,33.1c4.4,1.5,8.8,2,13.2,2c30.7,0,59.1-30.5,75.8-53.6c1.8-2.6,2.6-5,2.6-7.3
		C739.4,334.7,735.9,331.8,732.1,331.8z M648.3,238.4c0.2,0,0.4,0.2,0.6,0.2c0.2,0.2,0.4,0.6,0.4,1.2c0,3.8-6.4,15.9-10.7,15.9
		c-1.4,0-3.8-0.8-5.6-2C639.2,244.2,646,238.4,648.3,238.4z M582,238.4c0.2,0,0.4,0.2,0.6,0.2c0.2,0.2,0.4,0.6,0.4,1.2
		c0,3.8-6.4,15.9-10.7,15.9c-1.4,0-3.8-0.8-5.6-2C572.9,244.2,579.7,238.4,582,238.4z M396.7,265.1c-2.4,4.8-12.3,19.9-17.5,19.9
		c-0.6,0-1-0.2-1-1.4c0-2.8,2.8-11.3,10.2-23.3c5.4-9,14.3-20.3,18.1-20.3c1.2,0,1.6,2.4,1.8,4.2
		C404.2,250.4,400.3,257.8,396.7,265.1z M479.3,253.1c0.4-0.6,0.9-1,1.5-1.3c4.1-1.9,14.6-6.6,19.5-6.6c1.4,0,2.4,0.4,2.6,1.4
		c0,4.6-23.1,11.7-28.1,13.5L479.3,253.1z M729.7,237.2c0.6,0,0.9,0.3,1.2,0.3c0.6,0.3,0.9,1.2,0.9,2.1c0,6.1-10.4,22.8-24,37.9
		c-2.9,3.2-8-0.5-5.8-4.3C713,254.3,724.6,237.2,729.7,237.2z"/>
	<path class="st0" d="M343.4,372.3v-21.5c0-6.9-3.2-15.2-13.8-15.2c-4.1,0-9.2,3.3-14.3,7.2l-0.2-0.2l0.8-7
		c-2.4-0.1-15.7,3-17.2,4.2l-0.9,2.2l4.8,2.4v7.9c0,11-0.1,20.3-0.3,21.6l-5.2,3.1l-0.7,2.7c4.2,0,8.4-0.1,12.6-0.1
		c3.7,0,7.4,0,11.2,0.1l0.6-2.7l-4.7-3.1c-0.2-1.7-0.2-19.7-0.2-27.3c2.5-2,4.9-3,7.2-3c4.5,0,7.1,3.1,7.1,8.8
		c0,12.1-0.3,18.7-0.5,21.6l-3.9,3.1l-0.5,2.7c3.8,0,7.5-0.1,11.2-0.1c4.3,0,8.6,0.1,13,0.1l0.7-2.7l-4.9-2.4
		C344.1,373.9,343.4,373.3,343.4,372.3z"/>
	<path class="st0" d="M412,371.5c0.1-6.1,0.2-14.4,0.2-21.4c0-5.7-3.4-14.5-15.8-14.5c-2,0-4.2,0.7-6.7,1.5
		c-4.6,1.7-10.5,5-14.1,8.1c1.5,4.7,7.4,9.1,8.4,9.2l0.8-0.7c0.7-1.9,1.5-7.6,1.9-11.6c1.1-0.4,2.8-1,4.9-1c3.6,0,8.2,2,7.9,9.5
		l-0.1,2.9c-6.1,1.7-17.1,5.4-19.8,7.2c-2.7,1.4-4,3.8-4,7.8c0,5.5,4.4,12.2,12.7,12.2c3.4,0,6.2-1.5,11.3-5.3h0.2
		c0.9,2,3.8,5.1,10.3,5.1c4.3,0,7.6-1.8,8.8-2.8l0.3-1.5C415.5,375,412.5,372.5,412,371.5z M399.1,370.2c0,1-0.1,1.7-0.7,2.1
		c-1,0.8-1.9,1.2-3.3,1.2c-2.6,0-6.5-1.6-6.5-6.9c0-2.7,0.9-4.1,3-5.6c2.1-1.3,5.5-2.8,7.6-3.7L399.1,370.2z"/>
	<path class="st0" d="M475.8,374.6c-2,0.3-10.6,0.8-14.2,0.8l0.1-0.2c4.9-8.6,17.7-29.1,22.1-37.3l-0.6-1h-28.9l-7.8-0.8l-0.3,0.4
		c-0.2,1.7,0.2,12.7,0.6,14.4l1.6-0.4c2-2.4,4.2-6,5.9-8.9c7.2-0.5,11.2-0.5,13.1-0.5v0.2c-7.4,12.5-16.4,26.6-23.7,37.6l0.6,0.7
		h16.6c9.2,0,16.1,0.5,22,0.6c0.8-2.5,2.3-12.9,2.4-15.5l-1.7,0.5C481.9,366.5,478.5,370.7,475.8,374.6z"/>
	<path class="st0" d="M524.2,329.6c1.8-1.1,5.6-4.7,6.6-7l0.3-1.1c-1.3-2.5-4.8-6.5-6.4-7l-0.9,0.2c-2.1,1.3-5.1,4.3-6.8,7.1
		l-0.2,1.1c1.2,2.3,4.1,5.7,6.4,7L524.2,329.6z"/>
	<path class="st0" d="M530.9,355.6v-20c-7.2,0.5-16.4,2.6-17.8,3.1l-0.8,2.3l5.4,2.7v11.7c0,7.6-0.1,15.1-0.2,18.5l-5.1,3l-0.5,2.8
		c3.9,0,8.2-0.2,12.2-0.2c4.5,0,8.3,0.2,12.8,0.2l0.6-2.8l-6.5-3C531,371.8,530.9,366.4,530.9,355.6z"/>
	<path class="st0" d="M582.2,343.7H582c0.1-1.5-0.5-6.3-1-8.1c-4.2,0.2-15,3.1-16.5,3.9l-0.7,2.3l5.2,2.6c0,3.9-0.1,19.6-0.5,29.5
		l-5.3,3.1l-0.3,2.7c4.1,0,8.2-0.1,12.3-0.1c5.3,0,10.6,0.1,15.9,0.1l0.7-2.7l-9.6-3.1v-25.1c1.2-2.5,3.8-4.6,5.8-4.6
		c0.7,0,1.1,0.1,1.4,0.4c2,3.9,3.1,5.4,4.1,7l1.6-0.5c1.9-3.3,4.6-10.6,4.8-13.4c-1.2-1.2-2.9-2-5.5-2
		C589.8,335.6,585.3,339,582.2,343.7z"/>
</g>
</svg>
